<svg width="24" height="24" viewBox="0 0 24 24" fill="none" xmlns="http://www.w3.org/2000/svg">
<path d="M0 4C0 1.79086 1.79086 0 4 0H20C22.2091 0 24 1.79086 24 4V20C24 22.2091 22.2091 24 20 24H4C1.79086 24 0 22.2091 0 20V4Z" fill="#ECEDED"/>
<path d="M12.6667 7.33332H18M12.6667 9.99999H16M12.6667 14H18M12.6667 16.6667H16M6 7.33332C6 7.15651 6.07024 6.98694 6.19526 6.86192C6.32029 6.73689 6.48986 6.66666 6.66667 6.66666H9.33333C9.51014 6.66666 9.67971 6.73689 9.80474 6.86192C9.92976 6.98694 10 7.15651 10 7.33332V9.99999C10 10.1768 9.92976 10.3464 9.80474 10.4714C9.67971 10.5964 9.51014 10.6667 9.33333 10.6667H6.66667C6.48986 10.6667 6.32029 10.5964 6.19526 10.4714C6.07024 10.3464 6 10.1768 6 9.99999V7.33332ZM6 14C6 13.8232 6.07024 13.6536 6.19526 13.5286C6.32029 13.4036 6.48986 13.3333 6.66667 13.3333H9.33333C9.51014 13.3333 9.67971 13.4036 9.80474 13.5286C9.92976 13.6536 10 13.8232 10 14V16.6667C10 16.8435 9.92976 17.013 9.80474 17.1381C9.67971 17.2631 9.51014 17.3333 9.33333 17.3333H6.66667C6.48986 17.3333 6.32029 17.2631 6.19526 17.1381C6.07024 17.013 6 16.8435 6 16.6667V14Z" stroke="#1F2020" stroke-width="1.33333" stroke-linecap="round" stroke-linejoin="round"/>
</svg>
